# xmcd
#
# Track frame offsets:
#	150
#	18531
#	32841
#	49876
#	63947
#	87931
#	105562
#	124764
#	137638
#	155313
#	177774
#	193286
#	205139
#	222482
#	233780
#	254131
#
# Disc length: 3659 seconds
#
# Revision: 0
# Processed by: cddbd v1.5.2PL0 Copyright (c) Steve Scherf et al.
# Submitted via: audiograbber 1.83.01
#
DISCID=e90e4910
DTITLE=Various Artist - Fever - Songs, Die Unter Die Haut Gehen
DYEAR=1982
DGENRE=Rock
TTITLE0=Procol Harum  - A Whiter Shade Of Pale
TTITLE1=Aphrodite's Child  - Rain And Tears
TTITLE2=Them  - It's All Over Now, Baby Blue
TTITLE3=Fleetwood Mac  - Albatross
TTITLE4=Julie Driscoll and Brian Auger  - Road To Cairo
TTITLE5=Eric Burdon And The Animals  - When I Was Young
TTITLE6=The Hollies  - He Ain't Heavy, He's My Brother
TTITLE7=Percy Sledge  - When A Man Loves A Woman
TTITLE8=Janis Joplin  - Cry Baby
TTITLE9=Joe Cocker  - With A Little Help From My Friends
TTITLE10=Aphrodite's Child  - It's Five O'Clock
TTITLE11=The Roars  - Light My Fire
TTITLE12=Procol Harum  - Homburg
TTITLE13=Rare Bird  - Sympathy
TTITLE14=Eric Burdon and War  - Nights In White Satin
TTITLE15=Santana  - Samba Pa Ti
EXTD=
EXTT0=
EXTT1=
EXTT2=
EXTT3=
EXTT4=
EXTT5=
EXTT6=
EXTT7=
EXTT8=
EXTT9=
EXTT10=
EXTT11=
EXTT12=
EXTT13=
EXTT14=
EXTT15=
PLAYORDER=
